<svg width="20" height="20" viewBox="0 0 20 20" fill="none" xmlns="http://www.w3.org/2000/svg">
<rect width="20" height="20" fill="white"/>
<path d="M16.8369 15.3038L12.2887 7.88489V4.12H12.8609C13.0127 4.12 13.1582 4.061 13.2655 3.95598C13.3728 3.85096 13.4331 3.70852 13.4331 3.56C13.4331 3.41148 13.3728 3.26904 13.2655 3.16402C13.1582 3.059 13.0127 3 12.8609 3H7.13908C6.98733 3 6.84179 3.059 6.73449 3.16402C6.62718 3.26904 6.5669 3.41148 6.5669 3.56C6.5669 3.70852 6.62718 3.85096 6.73449 3.95598C6.84179 4.061 6.98733 4.12 7.13908 4.12H7.71127V7.88489L4.83799 12.5717C4.83484 12.5767 4.8318 12.5817 4.82884 12.5867L3.1631 15.3038C3.0589 15.4737 3.00265 15.6677 3.00009 15.8659C2.99753 16.0641 3.04876 16.2594 3.14854 16.4318C3.24832 16.6043 3.39308 16.7478 3.56804 16.8476C3.743 16.9474 3.94189 17 4.14441 17H15.8556C16.0581 17 16.257 16.9474 16.432 16.8476C16.6069 16.7478 16.7517 16.6043 16.8515 16.4319C16.9512 16.2594 17.0025 16.0641 16.9999 15.8659C16.9974 15.6677 16.9411 15.4738 16.8369 15.3038ZM10.2559 12.5791C9.23648 12.0802 7.91945 11.6326 6.65753 11.7806L8.69251 8.46116C8.79925 8.28709 8.85563 8.0879 8.85564 7.88489V4.12H11.1444V7.88489C11.1444 8.08789 11.2007 8.28706 11.3075 8.46113L14.0871 12.9952C13.1496 13.493 11.838 13.3533 10.2559 12.5791Z" fill="#122A4E"/>
</svg>
