<svg width="20" height="20" viewBox="0 0 20 20" fill="none" xmlns="http://www.w3.org/2000/svg">
<rect width="20" height="20" fill="white"/>
<path fill-rule="evenodd" clip-rule="evenodd" d="M10.3614 3.0001C10.8705 2.99937 11.3223 2.99872 11.7396 3.16005C12.1569 3.32138 12.4759 3.62002 12.8353 3.95653C13.5475 4.62328 14.2608 5.28903 14.9752 5.95373C15.3357 6.2892 15.6557 6.58694 15.8285 6.97641C16.0014 7.36589 16.0007 7.78759 15.9999 8.26276C15.997 10.0239 15.9998 11.785 15.9998 13.5462C15.9999 14.1667 15.9999 14.7014 15.9382 15.1295C15.8721 15.5883 15.7231 16.0282 15.3408 16.385C14.9586 16.7417 14.4873 16.8809 13.9957 16.9425C13.5369 17.0001 12.9641 17.0001 12.2992 17H7.70059C7.03573 17.0001 6.46287 17.0001 6.00413 16.9425C5.5125 16.8809 5.04125 16.7417 4.659 16.385C4.27676 16.0282 4.12771 15.5883 4.06161 15.1295C3.99993 14.7014 3.99996 14.1667 4 13.5462L4.00001 6.50016C4.00001 6.48474 4 6.46938 4 6.45408C3.99996 5.83354 3.99993 5.29888 4.06161 4.87072C4.12771 4.41187 4.27676 3.97203 4.65901 3.61527C5.04125 3.25851 5.5125 3.11939 6.00413 3.0577C6.46287 3.00013 7.03572 3.00016 7.70058 3.00019C8.58753 3.00024 9.47447 3.00137 10.3614 3.0001ZM12.7802 9.50512C13.0731 9.77847 13.0731 10.2217 12.7802 10.495L10.0973 12.9991C9.62934 13.4359 8.8705 13.4359 8.40249 12.9991L7.21962 11.895C6.92673 11.6217 6.92673 11.1784 7.21962 10.9051C7.51251 10.6318 7.98738 10.6318 8.28027 10.9051L9.24992 11.8101L11.7196 9.50512C12.0124 9.23177 12.4873 9.23177 12.7802 9.50512Z" fill="#122A4E"/>
</svg>
