<svg width="20" height="20" viewBox="0 0 20 20" fill="none" xmlns="http://www.w3.org/2000/svg">
<rect width="20" height="20" fill="white"/>
<path d="M15.4091 4H4.59091C4.42213 4 4.26027 4.07024 4.14093 4.19526C4.02159 4.32029 3.95455 4.48986 3.95455 4.66667V12.6667C3.95455 12.8435 4.02159 13.013 4.14093 13.1381C4.26027 13.2631 4.42213 13.3333 4.59091 13.3333H15.4091C15.5779 13.3333 15.7397 13.2631 15.8591 13.1381C15.9784 13.013 16.0455 12.8435 16.0455 12.6667V4.66667C16.0455 4.48986 15.9784 4.32029 15.8591 4.19526C15.7397 4.07024 15.5779 4 15.4091 4ZM12.5136 9.1L11.8136 9.26667C11.785 9.38304 11.7423 9.49507 11.6864 9.6L12.0682 10.2333C11.9104 10.4652 11.7168 10.668 11.4955 10.8333L10.8909 10.4333L10.5727 10.5667L10.4136 11.3H9.58636L9.42727 10.5667L9.10909 10.4333L8.50455 10.8333C8.28318 10.668 8.08963 10.4652 7.93182 10.2333L8.31364 9.6C8.25773 9.49507 8.21496 9.38304 8.18636 9.26667L7.48636 9.1C7.45997 8.95731 7.4493 8.81191 7.45455 8.66667C7.4493 8.52142 7.45997 8.37603 7.48636 8.23333L8.18636 8.06667C8.21496 7.95029 8.25773 7.83826 8.31364 7.73333L7.93182 7.1C8.08963 6.8681 8.28318 6.66533 8.50455 6.5L9.10909 6.9L9.42727 6.76667L9.58636 6.03333H10.4136L10.5727 6.76667L10.8909 6.9L11.4955 6.5C11.7168 6.66533 11.9104 6.8681 12.0682 7.1L11.6864 7.73333C11.7423 7.83826 11.785 7.95029 11.8136 8.06667L12.5136 8.23333C12.54 8.37603 12.5507 8.52142 12.5455 8.66667C12.5507 8.81191 12.54 8.95731 12.5136 9.1ZM10 8C9.87414 8 9.7511 8.0391 9.64645 8.11235C9.54181 8.18561 9.46024 8.28973 9.41208 8.41154C9.36391 8.53336 9.35131 8.66741 9.37586 8.79673C9.40042 8.92605 9.46103 9.04484 9.55002 9.13807C9.63902 9.23131 9.75241 9.2948 9.87585 9.32052C9.99929 9.34625 10.1272 9.33305 10.2435 9.28259C10.3598 9.23213 10.4592 9.14668 10.5291 9.03705C10.599 8.92741 10.6364 8.79852 10.6364 8.66667C10.6364 8.48986 10.5693 8.32029 10.45 8.19526C10.3306 8.07024 10.1688 8 10 8Z" fill="#122A4E"/>
<path d="M16.3636 14.6667H3.63636C3.46759 14.6667 3.30573 14.7369 3.18639 14.8619C3.06705 14.987 3 15.1565 3 15.3333C3 15.5101 3.06705 15.6797 3.18639 15.8047C3.30573 15.9298 3.46759 16 3.63636 16H16.3636C16.5324 16 16.6943 15.9298 16.8136 15.8047C16.933 15.6797 17 15.5101 17 15.3333C17 15.1565 16.933 14.987 16.8136 14.8619C16.6943 14.7369 16.5324 14.6667 16.3636 14.6667Z" fill="#122A4E"/>
</svg>
