<svg width="18" height="18" viewBox="0 0 18 18" fill="none" xmlns="http://www.w3.org/2000/svg">
<circle cx="9" cy="9" r="9" fill="#122A4E"/>
<circle cx="9" cy="9" r="8" fill="#122A4E"/>
<path d="M8.99975 1C4.58206 1 1 4.58181 1 8.99975C1 13.4177 4.58206 16.9995 8.99975 16.9995C13.4185 16.9995 17 13.4177 17 8.99975C17 4.58178 13.4185 1 8.99975 1ZM10.4044 12.6725C10.0808 13.0316 9.89538 13.2451 9.54609 13.579C9.01741 14.0845 8.41709 14.2191 7.95038 13.7201C7.27953 13.0026 7.98313 10.82 8.00028 10.7373C8.12628 10.1572 8.37778 8.99772 8.37778 8.99772C8.37778 8.99772 7.83444 9.33034 7.51188 9.44831C7.27397 9.53525 7.00484 9.42109 6.93831 9.191C6.87631 8.97781 6.92569 8.84222 7.05625 8.69656C7.37981 8.33769 7.56528 8.12425 7.91459 7.79034C8.44378 7.28456 9.04359 7.15025 9.51031 7.64897C10.1812 8.36644 9.68619 9.54684 9.51231 10.3833C9.49519 10.4662 9.08288 12.3716 9.08288 12.3716C9.08288 12.3716 9.62622 12.0389 9.94878 11.9207C10.1872 11.8341 10.4563 11.9485 10.5228 12.1783C10.5849 12.3915 10.535 12.5271 10.4044 12.6725ZM9.53653 6.50359C8.79009 6.56909 8.13234 6.01722 8.06681 5.27025C8.00181 4.52406 8.55369 3.86606 9.30016 3.80106C10.0461 3.73553 10.7043 4.28794 10.7694 5.03413C10.8349 5.78034 10.2825 6.43859 9.53653 6.50359Z" fill="white"/>
</svg>
