<svg width="16" height="16" viewBox="0 0 16 16" fill="none" xmlns="http://www.w3.org/2000/svg">
<path d="M7.99975 0.000488281C3.58206 0.000488281 0 3.5823 0 8.00024C0 12.4182 3.58206 16 7.99975 16C12.4185 16 16 12.4182 16 8.00024C16 3.58227 12.4185 0.000488281 7.99975 0.000488281ZM9.40444 11.673C9.08084 12.0321 8.89538 12.2456 8.54609 12.5795C8.01741 13.085 7.41709 13.2196 6.95038 12.7206C6.27953 12.0031 6.98313 9.82046 7.00028 9.7378C7.12628 9.15768 7.37778 7.99821 7.37778 7.99821C7.37778 7.99821 6.83444 8.33083 6.51188 8.4488C6.27397 8.53574 6.00484 8.42158 5.93831 8.19149C5.87631 7.9783 5.92569 7.84271 6.05625 7.69705C6.37981 7.33818 6.56528 7.12474 6.91459 6.79083C7.44378 6.28505 8.04359 6.15074 8.51031 6.64946C9.18116 7.36693 8.68619 8.54733 8.51231 9.38374C8.49519 9.46664 8.08288 11.3721 8.08288 11.3721C8.08288 11.3721 8.62622 11.0394 8.94878 10.9212C9.18716 10.8346 9.45631 10.949 9.52284 11.1788C9.58487 11.392 9.535 11.5276 9.40444 11.673ZM8.53653 5.50408C7.79009 5.56958 7.13234 5.01771 7.06681 4.27074C7.00181 3.52455 7.55369 2.86655 8.30016 2.80155C9.04609 2.73602 9.70434 3.28843 9.76937 4.03461C9.83487 4.78083 9.28247 5.43908 8.53653 5.50408Z" fill="#122A4E"/>
</svg>
